HIERARCHY
ROOT Hips
{
	OFFSET 0.000000 0.000000 0.000000
	CHANNELS 6 Xposition Yposition Zposition Xrotation Yrotation Zrotation
	JOINT LeftUpLeg_virtual
	{
		OFFSET 0.000000 0.000000 0.000000
		CHANNELS 3 Xrotation Yrotation Zrotation
		JOINT LeftUpLeg
		{
			OFFSET 15.427100 -6.655098 0.678600
			CHANNELS 3 Xrotation Yrotation Zrotation
			JOINT LeftLeg
			{
				OFFSET 4.081073 -39.591068 13.024000
				CHANNELS 3 Xrotation Yrotation Zrotation
				JOINT LeftFoot
				{
					OFFSET -4.081074 -37.707932 -15.979700
					CHANNELS 3 Xrotation Yrotation Zrotation
					JOINT LeftToeBase
					{
						OFFSET 5.346399 -15.068900 20.645000
						CHANNELS 3 Xrotation Yrotation Zrotation
						JOINT LeftToe_End
						{
							OFFSET 2.754700 0.931300 11.300900
							CHANNELS 3 Xrotation Yrotation Zrotation
							End Site
							{
								OFFSET 0 0 0
							}
						}
					}
				}
			}
		}
	}
	JOINT RightUpLeg_virtual
	{
		OFFSET 0.000000 0.000000 0.000000
		CHANNELS 3 Xrotation Yrotation Zrotation
		JOINT RightUpLeg
		{
			OFFSET -15.569500 -6.655098 0.678600
			CHANNELS 3 Xrotation Yrotation Zrotation
			JOINT RightLeg
			{
				OFFSET -4.081825 -39.591045 13.023800
				CHANNELS 3 Xrotation Yrotation Zrotation
				JOINT RightFoot
				{
					OFFSET 4.081824 -37.707954 -15.979600
					CHANNELS 3 Xrotation Yrotation Zrotation
					JOINT RightToeBase
					{
						OFFSET -5.346400 -15.068900 20.645000
						CHANNELS 3 Xrotation Yrotation Zrotation
						JOINT RightToe_End
						{
							OFFSET -2.754700 0.931300 11.300900
							CHANNELS 3 Xrotation Yrotation Zrotation
							End Site
							{
								OFFSET 0 0 0
							}
						}
					}
				}
			}
		}
	}
	JOINT Spine_virtual
	{
		OFFSET 0.000000 0.000000 0.000000
		CHANNELS 3 Xrotation Yrotation Zrotation
		JOINT Spine
		{
			OFFSET -0.279200 12.230698 -2.892100
			CHANNELS 3 Xrotation Yrotation Zrotation
			JOINT Spine1
			{
				OFFSET -0.232667 10.192268 -1.242267
				CHANNELS 3 Xrotation Yrotation Zrotation
				JOINT Spine1_split
				{
					OFFSET -0.232667 10.192268 -1.242267
					CHANNELS 3 Xrotation Yrotation Zrotation
					JOINT Spine2
					{
						OFFSET -0.232667 10.192268 -1.242267
						CHANNELS 3 Xrotation Yrotation Zrotation
						JOINT Neck_virtual
						{
							OFFSET 0.000000 0.000000 0.000000
							CHANNELS 3 Xrotation Yrotation Zrotation
							JOINT Neck
							{
								OFFSET -0.418800 17.814194 8.416900
								CHANNELS 3 Xrotation Yrotation Zrotation
								JOINT Head
								{
									OFFSET 0.000000 7.031097 3.806800
									CHANNELS 3 Xrotation Yrotation Zrotation
									JOINT HeadTop_End
									{
										OFFSET 0.000000 24.646606 12.978600
										CHANNELS 3 Xrotation Yrotation Zrotation
										End Site
										{
											OFFSET 0 0 0
										}
									}
								}
							}
						}
						JOINT LeftShoulder_virtual
						{
							OFFSET 0.000000 0.000000 0.000000
							CHANNELS 3 Xrotation Yrotation Zrotation
							JOINT LeftShoulder
							{
								OFFSET 8.476499 7.247704 -3.868750
								CHANNELS 3 Xrotation Yrotation Zrotation
								JOINT LeftShoulder_split
								{
									OFFSET 8.476499 7.247704 -3.868750
									CHANNELS 3 Xrotation Yrotation Zrotation
									JOINT LeftArm
									{
										OFFSET 9.308998 -2.777710 0.208600
										CHANNELS 3 Xrotation Yrotation Zrotation
										JOINT LeftForeArm
										{
											OFFSET 29.972298 0.000000 0.000000
											CHANNELS 3 Xrotation Yrotation Zrotation
											JOINT LeftHand
											{
												OFFSET 26.026505 0.000000 0.000000
												CHANNELS 3 Xrotation Yrotation Zrotation
												End Site
												{
													OFFSET 0 0 0
												}
											}
										}
									}
								}
							}
						}
						JOINT RightShoulder_virtual
						{
							OFFSET 0.000000 0.000000 0.000000
							CHANNELS 3 Xrotation Yrotation Zrotation
							JOINT RightShoulder
							{
								OFFSET -7.570500 7.247704 -3.868750
								CHANNELS 3 Xrotation Yrotation Zrotation
								JOINT RightShoulder_split
								{
									OFFSET -7.570500 7.247704 -3.868750
									CHANNELS 3 Xrotation Yrotation Zrotation
									JOINT RightArm
									{
										OFFSET -9.308998 -2.777710 0.208500
										CHANNELS 3 Xrotation Yrotation Zrotation
										JOINT RightForeArm
										{
											OFFSET -29.972300 0.000000 0.000000
											CHANNELS 3 Xrotation Yrotation Zrotation
											JOINT RightHand
											{
												OFFSET -26.026505 0.000000 0.000000
												CHANNELS 3 Xrotation Yrotation Zrotation
												End Site
												{
													OFFSET 0 0 0
												}
											}
										}
									}
								}
							}
						}
					}
				}
			}
		}
	}
}
MOTION
Frames: 11
Frame Time: 0.03333333
-1.163120 123.007706 17.949926 0.000000 0.000000 0.000000 8.195665 -40.483115 5.730925 -78.034317 -21.110781 23.572057 76.498365 -3.821232 -2.275787 9.503464 5.538443 -3.692361 -13.650254 2.582118 -1.352820 0.000000 0.000000 0.000000 7.739220 -35.985316 4.935578 -99.374990 -54.922630 20.988656 108.460235 -11.130946 -32.723959 45.830361 8.799540 28.220801 13.024158 3.895583 -5.754065 0.000000 0.000000 0.000000 4.644160 -41.579326 2.253447 30.830692 -7.894415 -6.427795 11.183398 1.118902 -3.275905 0.119325 1.441342 1.048924 0.000000 0.000000 0.000000 11.176941 0.889616 -2.320039 -6.439604 18.606991 -15.827551 -27.743335 11.352379 2.708080 0.000000 0.000000 0.000000 12.876997 1.478767 -2.914436 12.087920 -12.201283 -1.300498 1.101176 -3.700831 -4.530362 -54.063611 4.825534 1.096233 47.459180 -18.254681 30.888390 0.000000 0.000000 0.000000 14.305182 1.575509 -2.875874 17.665352 20.697736 -6.252928 0.440357 4.626871 3.859383 -32.332029 -13.647793 3.917500 -51.455671 49.849159 41.247226 0.000000 0.000000 0.000000 
-1.204330 123.039970 17.981024 0.000000 0.000000 0.000000 8.195582 -40.189892 5.636285 -78.147200 -20.950239 23.656654 76.461748 -3.762316 -2.361333 9.616042 5.538044 -3.664613 -13.644327 2.591237 -1.392389 0.000000 0.000000 0.000000 7.793884 -35.907090 4.876583 -99.286307 -54.889415 21.275324 108.474230 -11.133284 -32.844122 45.861449 8.900088 28.352684 12.968784 3.911426 -5.752794 0.000000 0.000000 0.000000 4.678713 -41.463684 2.167630 30.752408 -7.976051 -6.441474 11.230603 1.064498 -3.280497 0.122868 1.546034 0.922591 0.000000 0.000000 0.000000 11.204778 0.861214 -2.335828 -6.605528 18.624999 -15.706409 -27.762776 11.339306 2.829486 0.000000 0.000000 0.000000 12.905709 1.442374 -2.869145 12.262490 -12.523801 -0.451402 0.920739 -3.564503 -4.142556 -55.451133 4.052175 1.508419 47.429660 -18.433215 30.964949 0.000000 0.000000 0.000000 14.346720 1.502009 -2.872945 17.751991 20.374719 -6.664448 0.628063 4.758149 3.588383 -32.892302 -13.768575 3.594413 -51.649085 50.233924 41.413541 0.000000 0.000000 0.000000 
-1.192647 123.064911 17.983406 0.000000 0.000000 0.000000 8.157881 -39.659470 5.402187 -78.360629 -20.841508 23.674884 76.461632 -3.757282 -2.391887 9.834744 5.447943 -3.507071 -13.623505 2.585595 -1.368267 0.000000 0.000000 0.000000 7.834053 -35.569023 4.678841 -99.133810 -54.914847 21.753032 108.480630 -11.176178 -33.065735 46.083782 9.110935 28.617656 12.769041 3.914372 -5.701173 0.000000 0.000000 0.000000 4.808301 -41.199752 2.053671 30.650587 -8.049606 -6.505337 11.260583 1.011840 -3.303366 0.068701 1.627401 0.873413 0.000000 0.000000 0.000000 11.268108 0.856821 -2.365801 -6.749341 18.561560 -15.501336 -27.928929 11.266436 3.023022 0.000000 0.000000 0.000000 12.943027 1.440989 -2.826605 12.542895 -12.992329 0.987418 1.037363 -3.147504 -4.018947 -57.026537 2.551961 2.228680 47.385230 -18.628154 30.964546 0.000000 0.000000 0.000000 14.381245 1.445862 -2.897167 18.006108 19.933759 -7.578782 0.786602 4.778776 3.640433 -33.844868 -14.079985 2.801040 -52.768300 51.080311 42.630824 0.000000 0.000000 0.000000 
-1.151078 123.079132 18.002981 0.000000 0.000000 0.000000 8.095221 -39.007914 5.062122 -78.661929 -20.811510 23.623126 76.525931 -3.811406 -2.358618 10.143611 5.278730 -3.248108 -13.613966 2.566061 -1.286301 0.000000 0.000000 0.000000 7.841941 -35.079473 4.367353 -98.915414 -55.016265 22.356259 108.466566 -11.311196 -33.354624 46.366128 9.299717 28.928669 12.603948 3.900266 -5.600990 0.000000 0.000000 0.000000 5.016622 -40.846526 1.916974 30.536526 -8.105858 -6.604040 11.285831 0.964751 -3.331312 0.003044 1.622703 0.866556 0.000000 0.000000 0.000000 11.379053 0.873715 -2.403259 -6.859798 18.452431 -15.253213 -28.191298 11.152747 3.238102 0.000000 0.000000 0.000000 12.991040 1.461959 -2.796682 12.909087 -13.578418 2.782523 1.293783 -2.726744 -4.199015 -58.458018 0.593659 2.878015 47.254671 -18.608280 30.788399 0.000000 0.000000 0.000000 14.409257 1.413764 -2.940125 18.388312 19.474609 -8.846345 0.905819 4.714772 3.865230 -34.958486 -14.427337 1.765225 -54.466278 52.121471 44.528626 0.000000 0.000000 0.000000 
-1.103887 123.093437 18.046150 0.000000 0.000000 0.000000 8.023358 -38.302444 4.650792 -79.012701 -20.849340 23.526766 76.655705 -3.902383 -2.277535 10.493698 5.062869 -2.911557 -13.661493 2.543130 -1.172296 0.000000 0.000000 0.000000 7.802507 -34.544870 3.989977 -98.703624 -55.176099 22.976203 108.474790 -11.556354 -33.629796 46.628708 9.380677 29.205424 12.647484 3.871401 -5.466063 0.000000 0.000000 0.000000 5.253749 -40.454794 1.748245 30.431771 -8.135093 -6.713956 11.320396 0.921688 -3.355423 -0.046845 1.545203 0.878464 0.000000 0.000000 0.000000 11.523186 0.889448 -2.433803 -6.920299 18.329924 -15.023568 -28.491127 11.052532 3.425162 0.000000 0.000000 0.000000 13.061732 1.481541 -2.781326 13.339906 -14.227805 4.710314 1.547350 -2.503049 -4.507368 -59.611617 -1.705612 3.145536 47.090630 -18.321489 30.510807 0.000000 0.000000 0.000000 14.436001 1.398379 -2.981195 18.846367 19.132395 -10.258119 0.979663 4.642004 4.046801 -36.093233 -14.565607 0.723756 -56.282494 53.089568 46.603060 0.000000 0.000000 0.000000 
-1.063936 123.128296 18.076456 0.000000 0.000000 0.000000 7.941680 -37.646295 4.207881 -79.393805 -20.930447 23.419421 76.846411 -3.985460 -2.176900 10.866230 4.843315 -2.542637 -13.727336 2.531753 -1.077599 0.000000 0.000000 0.000000 7.732768 -34.092042 3.588006 -98.552533 -55.376507 23.531945 108.554068 -11.868581 -33.838472 46.895444 9.388099 29.451216 12.831053 3.839689 -5.319521 0.000000 0.000000 0.000000 5.483928 -40.138522 1.551492 30.360017 -8.133180 -6.812206 11.376640 0.873748 -3.370108 0.048003 1.509693 0.923259 0.000000 0.000000 0.000000 11.672567 0.884639 -2.449355 -6.933645 18.261122 -14.855060 -28.799356 11.009788 3.556493 0.000000 0.000000 0.000000 13.155915 1.477482 -2.783360 13.790758 -14.903524 6.501469 1.662911 -2.597580 -4.919619 -60.474529 -3.995460 2.965943 46.952138 -17.847636 30.228146 0.000000 0.000000 0.000000 14.476707 1.386440 -3.019254 19.345573 19.004786 -11.644046 0.965628 4.560619 4.165057 -37.011590 -14.304863 0.006616 -57.651052 53.790820 48.228628 0.000000 0.000000 0.000000 
-1.050396 123.177612 18.116285 0.000000 0.000000 0.000000 7.828964 -37.176518 3.763325 -79.789867 -21.034070 23.328626 77.082995 -4.046352 -2.060029 11.272593 4.621474 -2.218728 -13.754321 2.538622 -1.039199 0.000000 0.000000 0.000000 7.644565 -33.772092 3.187205 -98.477715 -55.597494 24.005719 108.706955 -12.152968 -34.001713 47.188913 9.432712 29.759363 12.904515 3.819262 -5.196850 0.000000 0.000000 0.000000 5.681669 -39.928043 1.335296 30.344044 -8.099832 -6.878433 11.465712 0.825708 -3.374962 0.210161 1.522002 0.932382 0.000000 0.000000 0.000000 11.785441 0.852945 -2.452135 -6.919489 18.260693 -14.801600 -29.078991 11.039260 3.619053 0.000000 0.000000 0.000000 13.259789 1.439099 -2.805069 14.219412 -15.569799 7.978739 1.815842 -2.867053 -5.053612 -61.267535 -6.047467 2.356551 46.886961 -17.338329 30.039575 0.000000 0.000000 0.000000 14.546336 1.374438 -3.050277 19.836616 19.073691 -12.842257 0.927378 4.474535 4.189680 -37.634844 -13.464799 -0.213628 -58.265024 54.206113 49.042271 0.000000 0.000000 0.000000 
-1.063740 123.224930 18.171713 0.000000 0.000000 0.000000 7.704169 -36.924231 3.359850 -80.185594 -21.158534 23.268286 77.348272 -4.079397 -1.932815 11.696576 4.390282 -1.995316 -13.726835 2.564791 -1.062005 0.000000 0.000000 0.000000 7.527014 -33.597492 2.816312 -98.427343 -55.831561 24.439481 108.888317 -12.339369 -34.158094 47.472007 9.552671 30.153263 12.743089 3.818259 -5.125408 0.000000 0.000000 0.000000 5.786117 -39.857391 1.096319 30.414074 -8.053359 -6.904240 11.579742 0.774329 -3.375806 0.320579 1.581161 0.919984 0.000000 0.000000 0.000000 11.842342 0.799092 -2.438983 -6.886218 18.333192 -14.864833 -29.303762 11.185816 3.641655 0.000000 0.000000 0.000000 13.357447 1.375240 -2.832727 14.584284 -16.189539 9.026377 1.874689 -3.135901 -4.906323 -62.054700 -7.742269 1.448546 46.942340 -16.982427 30.028356 0.000000 0.000000 0.000000 14.637898 1.349513 -3.065483 20.268537 19.306959 -13.757292 0.893957 4.411022 4.207808 -37.972560 -12.058191 0.163811 -57.888285 54.299925 48.772608 0.000000 0.000000 0.000000 
-1.093356 123.251770 18.244543 0.000000 0.000000 0.000000 7.564486 -36.882257 3.020278 -80.549042 -21.299820 23.252226 77.628734 -4.072592 -1.804250 12.107216 4.146237 -1.902421 -13.670881 2.604357 -1.123281 0.000000 0.000000 0.000000 7.379371 -33.578607 2.492863 -98.301380 -56.086481 24.877740 109.041545 -12.445399 -34.300858 47.677726 9.651622 30.531110 12.528986 3.830282 -5.100368 0.000000 0.000000 0.000000 5.756191 -39.955562 0.839066 30.572907 -8.010840 -6.904556 11.717028 0.721310 -3.380169 0.369501 1.654925 0.891214 0.000000 0.000000 0.000000 11.861127 0.736582 -2.421119 -6.833603 18.463811 -14.992871 -29.462451 11.380856 3.665561 0.000000 0.000000 0.000000 13.443762 1.297154 -2.860345 14.844742 -16.767003 9.570348 1.821605 -3.359443 -4.679066 -62.730049 -8.931236 0.427574 47.102726 -16.910170 30.181704 0.000000 0.000000 0.000000 14.724585 1.308271 -3.072033 20.602706 19.675760 -14.309307 0.853590 4.294045 4.221571 -38.092392 -10.243633 1.123772 -56.488574 54.048171 47.380049 0.000000 0.000000 0.000000 
-1.125269 123.267868 18.325323 0.000000 0.000000 0.000000 7.400050 -37.050942 2.749131 -80.831163 -21.458528 23.280746 77.919037 -4.036947 -1.674586 12.468252 3.889838 -1.923867 -13.667402 2.645276 -1.183739 0.000000 0.000000 0.000000 7.185089 -33.678283 2.225394 -98.074816 -56.358828 25.312584 109.138138 -12.502609 -34.397970 47.752940 9.631977 30.783324 12.449442 3.845664 -5.104568 0.000000 0.000000 0.000000 5.606131 -40.196797 0.583826 30.798597 -7.989954 -6.895541 11.862809 0.664589 -3.386954 0.317451 1.688371 0.877773 0.000000 0.000000 0.000000 11.877953 0.673594 -2.409980 -6.778925 18.618341 -15.129417 -29.554713 11.496515 3.721851 0.000000 0.000000 0.000000 13.526379 1.213397 -2.887144 14.983806 -17.306967 9.612990 1.764293 -3.520010 -4.364885 -63.205744 -9.742125 -0.680883 47.307113 -17.001799 30.380145 0.000000 0.000000 0.000000 14.796753 1.259326 -3.073391 20.797914 20.134006 -14.440348 0.829853 4.152869 4.240032 -38.099137 -8.127120 2.441017 -54.350018 53.466202 45.150822 0.000000 0.000000 0.000000 
-1.141702 123.286057 18.383186 0.000000 0.000000 0.000000 7.219962 -37.384665 2.557172 -81.010470 -21.615781 23.341106 78.212947 -3.984165 -1.551231 12.758859 3.625000 -2.046744 -13.763358 2.683515 -1.216613 0.000000 0.000000 0.000000 6.953749 -33.880651 2.017762 -97.793679 -56.628265 25.691244 109.197226 -12.532093 -34.409943 47.718874 9.488068 30.863197 12.468358 3.862701 -5.127282 0.000000 0.000000 0.000000 5.386382 -40.542849 0.366496 31.056781 -7.998473 -6.897672 12.013318 0.610105 -3.394885 0.226163 1.723654 0.896609 0.000000 0.000000 0.000000 11.927445 0.618960 -2.404133 -6.758996 18.767154 -15.226064 -29.610523 11.508800 3.819486 0.000000 0.000000 0.000000 13.613858 1.139882 -2.907139 14.995832 -17.824441 9.212231 1.752191 -3.693490 -4.032049 -63.308347 -10.312513 -1.820503 47.498580 -17.115650 30.512907 0.000000 0.000000 0.000000 14.852794 1.208156 -3.077032 20.850307 20.680744 -14.161462 0.760640 4.038656 4.245398 -37.991240 -5.916757 3.907451 -51.838551 52.592327 42.473528 0.000000 0.000000 0.000000 
